<svg width="77" height="76" viewBox="0 0 77 76" fill="none" xmlns="http://www.w3.org/2000/svg">
<g clip-path="url(#clip0_23_49193)">
<path d="M64.9615 20.7857C59.6291 17.7531 59.015 17.1484 55.9408 11.8821C52.8506 6.58825 49.0046 0 38.5 0C27.9954 0 24.1494 6.58825 21.0592 11.8821C17.987 17.1451 17.3742 17.7514 12.0385 20.7857C6.67494 23.8358 0 27.6319 0 38C0 48.3681 6.67494 52.1642 12.0385 55.2143C17.3707 58.2466 17.985 58.8514 21.0592 64.1179C24.1494 69.4118 27.9954 76 38.5 76C49.0046 76 52.8506 69.4118 55.9408 64.1179C59.0133 58.8547 59.6257 58.2488 64.9615 55.2143C70.3251 52.1642 77 48.3681 77 38C77 27.6319 70.3251 23.8358 64.9615 20.7857ZM15.553 52.539L21.3173 49.2542C21.931 48.9044 22.1413 48.1297 21.787 47.5239C21.4326 46.9181 20.6477 46.7105 20.034 47.0603L14.2667 50.3468C10.2875 42.7695 10.1297 33.5312 14.2667 25.6532L23.133 30.7057C19.5025 38.1446 21.8382 47.1409 28.8854 51.9034L23.7697 60.6489C20.4796 58.557 17.6725 55.7864 15.553 52.539ZM35.8225 21.3668C35.1224 21.4757 34.6444 22.1242 34.7547 22.8152C34.8651 23.5062 35.5223 23.9777 36.2222 23.8691C45.0904 22.4884 52.9943 29.2839 52.9943 37.9998C52.9943 45.8883 46.4921 52.306 38.5 52.306C30.5077 52.306 24.0056 45.8883 24.0056 37.9998C24.0056 32.9088 26.7825 28.1602 31.2525 25.6074C31.8656 25.2573 32.0753 24.4831 31.7213 23.8778L25.9907 14.0814C33.6679 10.1539 43.0278 9.99812 51.0094 14.0814L45.8944 22.8256C42.7064 21.3061 39.1856 20.8433 35.8225 21.3668ZM28.8816 24.0901C27.1087 25.2876 25.6017 26.7951 24.4162 28.5117L15.553 23.461C17.6725 20.2136 20.4796 17.4429 23.7697 15.3511L28.8816 24.0901ZM31.1056 53.1744C35.7567 55.3912 41.2248 55.4 45.8944 53.1744L51.0094 61.9186C43.3337 65.8455 33.9737 66.0025 25.9907 61.9186L31.1056 53.1744ZM48.1146 51.9034C49.8676 50.7188 51.3861 49.22 52.5863 47.4897L61.447 52.539C59.3275 55.7864 56.5204 58.557 53.2303 60.6489L48.1146 51.9034ZM62.7333 50.3468L53.874 45.2982C56.12 40.7075 56.1288 35.3106 53.874 30.7018L60.3333 27.0209C60.9471 26.6711 61.1576 25.8964 60.8031 25.2906C60.4488 24.6848 59.6641 24.4772 59.05 24.827L52.5863 28.5103C51.3861 26.78 49.8676 25.2812 48.1146 24.0966L53.2303 15.3511C65.2094 22.9674 69.1239 38.1773 62.7333 50.3468ZM38.5 2.53333C47.1041 2.53333 50.367 7.44167 53.2928 12.4225L53.2753 12.4157C44.2962 7.34397 33.0245 7.16252 23.7237 12.4162L23.707 12.4227C26.633 7.44167 29.8957 2.53333 38.5 2.53333ZM2.56667 38C2.56667 29.5075 7.53958 26.2873 12.5861 23.3991L12.5796 23.4159C7.45071 32.2615 7.24827 43.3892 12.5796 52.5841L12.5861 52.6009C7.53958 49.7127 2.56667 46.4925 2.56667 38ZM38.5 73.4667C29.8951 73.4667 26.6325 68.5575 23.7064 63.5761C23.7152 63.5799 23.7237 63.5849 23.7327 63.5886C32.7094 68.6551 43.9721 68.8349 53.2675 63.5886C53.2765 63.5849 53.285 63.5799 53.2938 63.5761C50.3675 68.5575 47.1049 73.4667 38.5 73.4667ZM64.4139 52.6009L64.4204 52.5842C69.6569 43.5531 69.6524 32.4233 64.4097 23.3968C69.4577 26.2854 74.4333 29.5053 74.4333 38C74.4333 46.4924 69.4604 49.7127 64.4139 52.6009Z" fill="white"/>
</g>
<defs>
<clipPath id="clip0_23_49193">
<rect width="77" height="76" fill="white"/>
</clipPath>
</defs>
</svg>
