<svg width="68" height="68" viewBox="0 0 68 68" fill="none" xmlns="http://www.w3.org/2000/svg">
<mask id="mask0_23_49089" style="mask-type:luminance" maskUnits="userSpaceOnUse" x="0" y="0" width="68" height="68">
<path d="M68 2.57614e-06L68 68L-3.42956e-06 68L0 0L68 2.57614e-06Z" fill="white"/>
</mask>
<g mask="url(#mask0_23_49089)">
<path d="M21.5039 39.0036L2.58447 39.0036L2.58447 28.9927L16.1186 28.9927M20.2253 28.9927L40.0148 28.9927C48.942 28.9927 57.27 34.6984 59.0372 49.9838L62.9683 49.9838C65.1134 50.0221 66.0064 51.9761 65.0065 53.5142L56.041 65.7273C55.0182 67.4294 53.19 67.4294 52.1671 65.7273L43.2017 53.5142C42.2018 51.9761 43.0948 50.0221 45.2399 49.9838L49.1748 49.9838C48.4344 43.9116 44.2513 39.0073 37.1752 39.0036L25.6106 39.0036" stroke="white" stroke-width="2" stroke-miterlimit="10" stroke-linecap="round" stroke-linejoin="round"/>
<path d="M43.2018 14.4859C42.2018 16.0201 43.0949 17.978 45.2399 18.0161L49.1749 18.0161C48.4345 24.0883 44.2514 28.9927 37.1753 28.9927L40.0148 28.9927C44.5834 28.9927 48.9956 30.4888 52.4535 34C55.7473 30.6529 58.1747 25.4776 59.0372 18.0161L62.9684 18.0161C65.1133 17.978 66.0065 16.0201 65.0066 14.4859L56.041 2.27269C55.0183 0.570563 53.1901 0.570563 52.1672 2.27269L43.2018 14.4859Z" stroke="white" stroke-width="2" stroke-miterlimit="10" stroke-linecap="round" stroke-linejoin="round"/>
</g>
</svg>
