<svg width="68" height="68" viewBox="0 0 68 68" fill="none" xmlns="http://www.w3.org/2000/svg">
<path d="M7.66602 53.4496V41.2128" stroke="white" stroke-width="2" stroke-miterlimit="10" stroke-linecap="round" stroke-linejoin="round"/>
<path d="M61.0708 53.4496V41.2128" stroke="white" stroke-width="2" stroke-miterlimit="10" stroke-linecap="round" stroke-linejoin="round"/>
<mask id="mask0_23_49128" style="mask-type:luminance" maskUnits="userSpaceOnUse" x="0" y="0" width="68" height="68">
<path d="M0 0H68V68H0V0Z" fill="white"/>
</mask>
<g mask="url(#mask0_23_49128)">
<path d="M24.1387 67.0039V62.2725" stroke="white" stroke-width="2" stroke-miterlimit="10" stroke-linecap="round" stroke-linejoin="round"/>
<path d="M44.5981 67.0039V62.2725" stroke="white" stroke-width="2" stroke-miterlimit="10" stroke-linecap="round" stroke-linejoin="round"/>
</g>
<path d="M7.66064 53.4469V44.7896" stroke="white" stroke-width="2" stroke-miterlimit="10" stroke-linecap="round" stroke-linejoin="round"/>
<path d="M61.0659 53.4469V44.7896" stroke="white" stroke-width="2" stroke-miterlimit="10" stroke-linecap="round" stroke-linejoin="round"/>
<mask id="mask1_23_49128" style="mask-type:luminance" maskUnits="userSpaceOnUse" x="0" y="0" width="68" height="68">
<path d="M0 0H68V68H0V0Z" fill="white"/>
</mask>
<g mask="url(#mask1_23_49128)">
<path d="M38.8619 46.7251L38.7826 46.6831C38.1 46.3223 37.6729 45.6135 37.6729 44.8413V43.2119" stroke="white" stroke-width="2" stroke-miterlimit="10" stroke-linecap="round" stroke-linejoin="round"/>
<path d="M30.3268 42.886V44.8414C30.3268 45.6136 29.8998 46.3224 29.2171 46.6833L29.1377 46.7252" stroke="white" stroke-width="2" stroke-miterlimit="10" stroke-linecap="round" stroke-linejoin="round"/>
<path d="M24.1338 67.0012V62.2698" stroke="white" stroke-width="2" stroke-miterlimit="10" stroke-linecap="round" stroke-linejoin="round"/>
<path d="M44.5928 67.0012V62.2698" stroke="white" stroke-width="2" stroke-miterlimit="10" stroke-linecap="round" stroke-linejoin="round"/>
<path d="M40.0867 46.7431L41.3346 47.3033C42.0468 47.6232 42.2187 48.557 41.667 49.1095L38.2112 52.5706C37.7729 52.9973 37.0828 53.0236 36.6134 52.6314L34 50.4417L38.5236 46.9155C38.9746 46.5785 39.5729 46.5124 40.0867 46.7431Z" stroke="white" stroke-width="2" stroke-miterlimit="10" stroke-linecap="round" stroke-linejoin="round"/>
<path d="M27.9131 46.7431L26.6652 47.3033C25.953 47.6232 25.7811 48.557 26.3328 49.1095L29.7886 52.5706C30.2269 52.9973 30.917 53.0236 31.3865 52.6314L33.9998 50.4417L29.4763 46.9155C29.0252 46.5785 28.4269 46.5124 27.9131 46.7431Z" stroke="white" stroke-width="2" stroke-miterlimit="10" stroke-linecap="round" stroke-linejoin="round"/>
<path d="M50.4099 57.2236C49.7876 51.1578 44.7086 48.4787 41.4727 47.3778" stroke="white" stroke-width="2" stroke-miterlimit="10" stroke-linecap="round" stroke-linejoin="round"/>
<path d="M26.5278 47.3778C23.076 48.5521 17.5273 51.5219 17.5273 58.4825V64.3071C17.5273 65.795 18.7335 67.0012 20.2216 67.0012H47.7788C49.2667 67.0012 50.4729 65.795 50.4729 64.3071V61.838" stroke="white" stroke-width="2" stroke-miterlimit="10" stroke-linecap="round" stroke-linejoin="round"/>
<path d="M41.0433 25.0146H40.9688C40.5562 25.0146 40.2217 24.6802 40.2217 24.2675C40.2217 23.0462 39.2316 22.056 38.0101 22.056H30.9706C27.8378 22.056 25.2983 24.5956 25.2983 27.7284V31.4769C25.2983 32.0275 25.6467 32.5179 26.1667 32.6989L27.564 33.1854C28.0523 33.3555 28.5623 32.9924 28.5615 32.4752L28.5585 29.8319C28.5532 28.5464 29.5782 27.4998 30.8483 27.4944L30.8759 27.4942C31.2647 27.4926 31.6492 27.5529 32.0164 27.6709C32.6672 27.88 33.3415 28.0067 34.0249 28.0038H34.5284C35.2119 28.0067 35.886 27.88 36.5368 27.6709C36.904 27.5529 37.2885 27.4926 37.6773 27.4942L37.7049 27.4944C38.975 27.4998 40.0002 28.5464 39.9947 29.8319L39.9922 32.4754C39.9915 32.9925 40.5015 33.3555 40.9897 33.1854L42.3865 32.6989C42.9065 32.5179 43.255 32.0275 43.255 31.477V27.2262C43.255 26.0049 42.2647 25.0146 41.0433 25.0146Z" stroke="white" stroke-width="2" stroke-miterlimit="10" stroke-linecap="round" stroke-linejoin="round"/>
<path d="M25.4157 32.0125C24.9576 32.3571 24.6602 32.9038 24.6606 33.5212L24.662 35.2332C24.6628 36.2755 25.5081 37.1199 26.5504 37.1194L27.0352 37.1191C27.0841 39.0471 27.8924 40.8997 29.3437 42.1539C30.5124 43.1637 32.1526 44.0425 34.3147 44.0576C36.4764 44.0239 38.1094 43.1312 39.2695 42.1116C40.7104 40.8449 41.5031 38.9856 41.5361 37.0572L42.0325 37.0551C42.7574 37.052 43.3426 36.4548 43.3395 35.721L43.3334 32.891C43.3322 32.6024 43.2391 32.3364 43.0839 32.1192" stroke="white" stroke-width="2" stroke-miterlimit="10" stroke-linecap="round" stroke-linejoin="round"/>
<path d="M4.25418 29.7061C2.43837 31.4652 1.0542 33.9462 1.0542 37.4227V50.2348C1.0542 52.0088 2.49229 53.4469 4.26627 53.4469H18.7055" stroke="white" stroke-width="2" stroke-miterlimit="10" stroke-linecap="round" stroke-linejoin="round"/>
<path d="M25.4398 26.4736C23.659 25.8195 22.3103 25.6232 22.3103 25.6232C20.2149 29.3574 14.8397 29.3574 12.7445 25.6232C12.7445 25.6232 10.626 25.9307 8.19287 27.0632" stroke="white" stroke-width="2" stroke-miterlimit="10" stroke-linecap="round" stroke-linejoin="round"/>
<path d="M49.2943 53.4469H63.7336C65.5074 53.4469 66.9455 52.0088 66.9455 50.2348V37.4227C66.9455 27.3199 55.2556 25.6232 55.2556 25.6232C53.553 29.9768 47.3925 29.9768 45.6898 25.6232C45.6898 25.6232 44.5826 25.7844 43.0503 26.3011" stroke="white" stroke-width="2" stroke-miterlimit="10" stroke-linecap="round" stroke-linejoin="round"/>
<path d="M57.5165 3.95476H57.4419C57.0327 3.95476 56.6935 3.62552 56.695 3.21632C56.6996 1.99086 55.7076 0.996095 54.4834 0.996095H47.4439C44.3111 0.996095 41.7715 3.53574 41.7715 6.66852V10.4171C41.7715 10.9677 42.12 11.458 42.6399 11.639L42.7316 11.6709H44.9902C48.3351 11.6709 51.2048 9.77234 53.2267 7.89185C54.369 6.82935 56.2365 7.60219 56.2816 9.16167C56.2824 9.18545 56.283 9.20935 56.2834 9.23339C56.3095 10.5739 57.3965 11.6709 58.7371 11.6709H58.7684L58.8598 11.6392C59.3798 11.458 59.7281 10.9678 59.7281 10.4171V6.16649C59.7281 4.94501 58.738 3.95476 57.5165 3.95476Z" stroke="white" stroke-width="2" stroke-miterlimit="10" stroke-linecap="round" stroke-linejoin="round"/>
<path d="M25.1302 3.98865C24.4019 3.98865 23.7516 3.5323 23.5039 2.84739L23.3091 2.30843C23.0614 1.62352 22.4111 1.16718 21.6828 1.16718H9.45011C8.75311 1.16718 8.18799 1.73229 8.18799 2.42943V4.33356C8.18799 6.63918 10.0569 8.50812 12.3624 8.50812H20.3346C21.5809 8.50812 22.7287 9.18626 23.3301 10.278C23.9313 11.3698 25.0791 12.048 26.3255 12.048C26.6204 12.0481 26.8596 11.8089 26.8596 11.5139V5.718C26.8596 4.76294 26.0853 3.98865 25.1302 3.98865Z" stroke="white" stroke-width="2" stroke-miterlimit="10" stroke-linecap="round" stroke-linejoin="round"/>
<path d="M10.563 8.10125C10.5445 8.31082 10.5336 8.52611 10.5346 8.75057L10.5404 10.1555L10.5428 10.7432L10.0742 10.7434C9.03152 10.7439 8.18684 11.5897 8.1875 12.6324L8.18883 14.3442C8.18949 15.3865 9.03498 16.231 10.0773 16.2304L10.5621 16.2303C10.6109 18.1583 11.4192 20.0108 12.8706 21.2651C14.0392 22.2749 15.6795 23.1535 17.8415 23.1688C20.0033 23.1351 21.6362 22.2425 22.7962 21.2227C24.2372 19.9561 25.03 18.0968 25.0629 16.1684L25.5594 16.1663C26.2843 16.1632 26.8694 15.5658 26.8664 14.8321L26.8601 12.0022C26.8599 11.8982 26.8463 11.7977 26.8237 11.7007" stroke="white" stroke-width="2" stroke-miterlimit="10" stroke-linecap="round" stroke-linejoin="round"/>
<path d="M41.8883 10.9526C41.4303 11.2974 41.1329 11.8441 41.1333 12.4615L41.1346 14.1733C41.1353 15.2157 41.9808 16.0601 43.0231 16.0595L43.5079 16.0594C43.5567 17.9873 44.3649 19.8399 45.8164 21.0941C46.985 22.1038 48.6253 22.9827 50.7873 22.9978C52.9491 22.9642 54.582 22.0714 55.7421 21.0518C57.183 19.7852 57.9758 17.9258 58.0087 15.9975L58.5052 15.9954C59.2301 15.9922 59.8152 15.395 59.8122 14.6612L59.8061 11.8312C59.8049 11.5426 59.7118 11.2766 59.5565 11.0594" stroke="white" stroke-width="2" stroke-miterlimit="10" stroke-linecap="round" stroke-linejoin="round"/>
<path d="M46.7996 21.8261V23.7815C46.7996 24.5536 46.3726 25.2625 45.6899 25.6232" stroke="white" stroke-width="2" stroke-miterlimit="10" stroke-linecap="round" stroke-linejoin="round"/>
<path d="M55.2556 25.6233C54.573 25.2624 54.146 24.5536 54.146 23.7814V22.1521" stroke="white" stroke-width="2" stroke-miterlimit="10" stroke-linecap="round" stroke-linejoin="round"/>
<path d="M13.8538 21.9971V23.7814C13.8538 24.5536 13.4268 25.2624 12.7441 25.6233" stroke="white" stroke-width="2" stroke-miterlimit="10" stroke-linecap="round" stroke-linejoin="round"/>
<path d="M22.3098 25.6233C21.6272 25.2624 21.2002 24.5536 21.2002 23.7814V22.3232" stroke="white" stroke-width="2" stroke-miterlimit="10" stroke-linecap="round" stroke-linejoin="round"/>
</g>
</svg>
