<svg width="36" height="41" viewBox="0 0 36 41" fill="none" xmlns="http://www.w3.org/2000/svg">
<path fill-rule="evenodd" clip-rule="evenodd" d="M24.4188 31.3878C22.6827 32.595 20.5584 33.3239 18.2056 33.3239C12.4264 33.3239 7.69797 29.4972 7.69797 23.3017C7.69797 20.2039 9.63959 17.4706 13.5457 12.8239C14.1168 13.4617 21.4721 22.8689 21.4721 22.8689L26.1777 17.5161C26.5203 18.0628 26.8173 18.6094 27.0914 19.1106C29.2843 23.2789 28.3706 28.6317 24.3959 31.3878M25.9721 4.1C24.2817 5.64889 22.7741 7.28889 21.4492 8.90611C19.2563 5.89944 16.5381 2.84722 13.4772 0C5.59645 7.28889 0 16.81 0 22.55C0 32.7317 8.04061 41 18 41C27.9594 41 36 32.7317 36 22.55C36 18.2678 31.8198 9.47556 26.0178 4.1" fill="white"/>
</svg>
