<svg width="27" height="28" viewBox="0 0 27 28" fill="none" xmlns="http://www.w3.org/2000/svg">
<path fill-rule="evenodd" clip-rule="evenodd" d="M1.9764 25.8206C3.9555 27.8276 7.1361 27.8276 13.5 27.8276C19.8639 27.8276 23.0459 27.8276 25.0223 25.8206C27 23.8164 27 20.586 27 14.1281C27 7.67012 27 4.44114 25.0223 2.43417C23.0472 0.428558 19.8639 0.428558 13.5 0.428558C7.1361 0.428558 3.95415 0.428558 1.9764 2.43417C0 4.44251 0 7.67012 0 14.1281C0 20.586 0 23.815 1.9764 25.8206ZM22.6125 19.6079C22.6125 19.8804 22.5058 20.1417 22.3159 20.3344C22.1261 20.5271 21.8685 20.6353 21.6 20.6353H5.4C5.13147 20.6353 4.87393 20.5271 4.68405 20.3344C4.49417 20.1417 4.3875 19.8804 4.3875 19.6079C4.3875 19.3354 4.49417 19.074 4.68405 18.8813C4.87393 18.6887 5.13147 18.5804 5.4 18.5804H21.6C21.8685 18.5804 22.1261 18.6887 22.3159 18.8813C22.5058 19.074 22.6125 19.3354 22.6125 19.6079ZM21.6 15.1555C21.8685 15.1555 22.1261 15.0473 22.3159 14.8546C22.5058 14.6619 22.6125 14.4006 22.6125 14.1281C22.6125 13.8556 22.5058 13.5942 22.3159 13.4015C22.1261 13.2089 21.8685 13.1006 21.6 13.1006H5.4C5.13147 13.1006 4.87393 13.2089 4.68405 13.4015C4.49417 13.5942 4.3875 13.8556 4.3875 14.1281C4.3875 14.4006 4.49417 14.6619 4.68405 14.8546C4.87393 15.0473 5.13147 15.1555 5.4 15.1555H21.6ZM22.6125 8.64826C22.6125 8.92076 22.5058 9.1821 22.3159 9.37479C22.1261 9.56747 21.8685 9.67572 21.6 9.67572H5.4C5.13147 9.67572 4.87393 9.56747 4.68405 9.37479C4.49417 9.1821 4.3875 8.92076 4.3875 8.64826C4.3875 8.37576 4.49417 8.11442 4.68405 7.92174C4.87393 7.72905 5.13147 7.6208 5.4 7.6208H21.6C21.8685 7.6208 22.1261 7.72905 22.3159 7.92174C22.5058 8.11442 22.6125 8.37576 22.6125 8.64826Z" fill="#44A3FF"/>
</svg>
