<svg width="21" height="22" viewBox="0 0 21 22" fill="none" xmlns="http://www.w3.org/2000/svg">
<path d="M10.5 0.4729C11.8924 0.4729 13.2277 1.0342 14.2123 2.03331C15.1969 3.03243 15.75 4.38752 15.75 5.80049C15.75 7.21345 15.1969 8.56854 14.2123 9.56766C13.2277 10.5668 11.8924 11.1281 10.5 11.1281C9.10761 11.1281 7.77225 10.5668 6.78769 9.56766C5.80312 8.56854 5.25 7.21345 5.25 5.80049C5.25 4.38752 5.80312 3.03243 6.78769 2.03331C7.77225 1.0342 9.10761 0.4729 10.5 0.4729ZM10.5 13.7919C16.3013 13.7919 21 16.176 21 19.1195V21.7832H0V19.1195C0 16.176 4.69875 13.7919 10.5 13.7919Z" fill="white"/>
</svg>
